<svg width="496" height="496" viewBox="0 0 496 496" fill="none" xmlns="http://www.w3.org/2000/svg">
<path fill-rule="evenodd" clip-rule="evenodd" d="M472 248C472 371.712 371.712 472 248 472C124.288 472 24 371.712 24 248C24 124.288 124.288 24 248 24C371.712 24 472 124.288 472 248ZM248 456C362.875 456 456 362.875 456 248C456 133.125 362.875 40 248 40C133.125 40 40 133.125 40 248C40 362.875 133.125 456 248 456Z" fill="black"/>
<path fill-rule="evenodd" clip-rule="evenodd" d="M496 248C496 384.967 384.967 496 248 496C111.033 496 0 384.967 0 248C0 111.033 111.033 0 248 0C384.967 0 496 111.033 496 248ZM248 480C376.13 480 480 376.13 480 248C480 119.87 376.13 16 248 16C119.87 16 16 119.87 16 248C16 376.13 119.87 480 248 480Z" fill="black"/>
<path fill-rule="evenodd" clip-rule="evenodd" d="M496 248C496 384.967 384.967 496 248 496C111.033 496 0 384.967 0 248C0 111.033 111.033 0 248 0C384.967 0 496 111.033 496 248ZM248 480C376.13 480 480 376.13 480 248C480 119.87 376.13 16 248 16C119.87 16 16 119.87 16 248C16 376.13 119.87 480 248 480Z" fill="black"/>
<path d="M92 139.626L180 265.155L268 139.626V348.997H267.997L251.997 332.997H252V190.322L180 293.028L108 190.322V332.997H108.003L92.0033 348.997H92V139.626Z" fill="black"/>
<path d="M244.003 332.997L228.003 348.997H228V266.368L180 334.838L132 266.368V348.997H131.997L115.997 332.997H116V215.671L180 306.965L244 215.671V332.997H244.003Z" fill="black"/>
<path d="M344 188.997C332.954 188.997 324 197.951 324 208.997V288.997C324 300.042 332.954 308.997 344 308.997C355.046 308.997 364 300.042 364 288.997V284.997H340.003L356.003 268.997H380V288.997C380 308.879 363.882 324.997 344 324.997C324.118 324.997 308 308.879 308 288.997V208.997C308 189.114 324.118 172.997 344 172.997C363.882 172.997 380 189.114 380 208.997V212.997H380.003L364.003 228.997H364V208.997C364 197.951 355.046 188.997 344 188.997Z" fill="black"/>
<path d="M388 212.997H387.997L403.997 228.997H404V208.997C404 175.86 377.137 148.997 344 148.997C310.863 148.997 284 175.86 284 208.997V288.997C284 322.134 310.863 348.997 344 348.997C377.137 348.997 404 322.134 404 288.997V244.997H340V245L356 261V260.997H388V288.997C388 313.297 368.301 332.997 344 332.997C319.699 332.997 300 313.297 300 288.997V208.997C300 184.696 319.699 164.997 344 164.997C368.301 164.997 388 184.696 388 208.997V212.997Z" fill="black"/>
</svg>
